<svg xmlns="https://www.w3.org/2000/svg" viewBox="0 0 447.13 107.72"><path fill="#F08300" d="M35.874 26.7L0 37.333c.259 45.453 20.933 76.015 46.403 68.369 8.351-2.51 16.191-8.82 22.962-17.777C48.654 89.227 38.616 62.99 35.874 26.7z"/><path fill="#E8380D" d="M92.808 9.467c-.175 30.652-9.57 60.109-23.442 78.457a27.145 27.145 0 0 0 6.149-1.117c23.546-7.068 42.994-44.333 46.004-85.961L92.808 9.467z"/><path d="M180.025 49.669l3.435-27.175c.001-.013.004-.023.006-.036a3.839 3.839 0 0 0-3.958-4.33H149.86a1.432 1.432 0 1 0 0 2.866h24.494l-3.616 28.676-28.313-.002a1.433 1.433 0 0 0 0 2.865h52.057v-2.864h-14.457zm102.637-27.706a3.839 3.839 0 0 0-3.838-3.835l-.002-.002-34.678.002a1.432 1.432 0 1 0 0 2.866l28.982-.003v28.676l-28.982.001a1.433 1.433 0 1 0 0 2.865h38.518v-30.57zm-80.136 16.444a3.054 3.054 0 1 1 0-6.11h29.325a3.055 3.055 0 1 1 0 6.11h-29.325zm139.769-1.371c-4.283-2.013-10.738-4.39-15.121-5.554a57.248 57.248 0 0 0 6.719-7.078 3.838 3.838 0 0 0-2.969-6.276h-7.74v-5.12a1.43 1.43 0 0 0-1.432-1.416v-.002h-5.436v.002c-.791 0-1.432.642-1.432 1.432v5.104H304.16a1.434 1.434 0 1 0 0 2.866h21.688c-5.262 10.03-17.461 20.317-30.756 23.939v.002a.773.773 0 0 0-.568.736c0 .427.35.77.771.77a.63.63 0 0 0 .193-.03c7.145-1.616 13.609-3.732 19.391-6.655v14.648h8.289V34.708c.707-.514 1.4-1.051 2.084-1.599 4.094 3.05 9.568 7.524 13.424 12.483l4.207-6.545a1.43 1.43 0 0 0 .203-.73c0-.561-.324-1.045-.791-1.281zm104.838-1.166a1.44 1.44 0 0 0-.816-1.297l.004-.002c-7.125-3.734-13.828-6.013-21.334-7.794l.004-13.778a1.431 1.431 0 0 0-1.432-1.407v-.002h-5.436v.001c-.793 0-1.434.642-1.434 1.432l-.006 41.381h8.291l.008-24.549c5.744 2.982 12.18 7.309 17.895 13.142l4.047-6.383c.131-.217.209-.472.209-.744zm-46.477-13.922a3.838 3.838 0 0 0-4.203-3.82h-29.281c-3.068 6.673-8.648 12.319-14.109 15.52l.002.001a.735.735 0 0 0-.363.629.738.738 0 0 0 1.019.676c7.439-3.379 13.543-7.917 18.49-13.963h19.293c-4.645 14.216-15.842 25.093-34.654 30.084l-.006.003-.02.005v.002a.783.783 0 0 0-.602.752c0 .43.355.777.783.777.025 0 .055-.005.08-.009v.004c22.006-3.072 36.803-13.053 43.316-29.222l-.018-.022c.178-.44.273-.917.273-1.417z"/><path d="M155.462 68.92c2.682 1.857 4.024 3.127 4.024 3.811 0 .314-.642.543-1.926.686-4.254 6.422-8.991 11.232-14.213 14.428l-.429-.557c5.195-4.309 9.376-10.433 12.544-18.368zm3.938 13.744l1.285.727c2.14 1.145 3.211 1.986 3.211 2.527 0 .314-.714.543-2.141.686-1.912 3.682-4.881 8.162-8.905 13.441 3.853-.199 6.492-.328 7.92-.385 5.194-.229 8.876-.455 11.045-.686-1.57-2.34-3.411-4.324-5.522-5.951l.385-.643c3.311 1.285 6.294 3.398 8.948 6.336.114.145.285.344.514.602.941 1.084 1.413 2.141 1.413 3.168 0 .998-.3 1.799-.9 2.396-.314.285-.614.43-.899.43-.627 0-1.184-.729-1.67-2.186-.313-1.027-.856-2.082-1.626-3.168-9.248 1.57-17.111 2.74-23.59 3.512l-.128.342c-.342.828-.685 1.242-1.027 1.242-.572 0-1.227-1.627-1.969-4.881l5.608-.129c2.883-5.077 5.565-10.872 8.048-17.38zm7.536-14.557c1.74 3.939 3.639 7.051 5.695 9.332 2.54 2.684 5.936 4.813 10.189 6.379l-.128.686c-1.541.172-2.712 1.1-3.511 2.783-6.052-3.51-10.433-9.762-13.144-18.752l.899-.428zm41.506-1.669c.4.115.742.199 1.028.256l.856.258c1.912.457 2.869.898 2.869 1.328 0 .514-.572.885-1.713 1.113v3.338c.027.83.085 1.941.172 3.34h10.188l2.355-2.91 3.424 2.91v.941h-15.883c.771 7.221 2.64 13.246 5.608 18.068 1.456 2.369 3.211 4.252 5.266 5.65.285.199.583.299.899.299.257 0 .527-.355.813-1.07l1.84-4.408.643.043-.984 5.051a6.111 6.111 0 0 0-.129 1.115c0 .625.256 1.225.77 1.795.541.543.814 1.057.814 1.543 0 .686-.301 1.027-.9 1.027-2.369 0-5.222-1.771-8.561-5.309-4.909-5.252-7.936-13.186-9.077-23.805h-20.55v-.941h20.422a483.52 483.52 0 0 1-.171-4.838v-4.794zm-2.783 16.482l3.125 2.697v1.027h-9.206v12.203a103.63 103.63 0 0 0 10.104-2.998l.429.6c-6.88 3.313-12.788 5.795-17.725 7.449-.058.998-.272 1.498-.643 1.498s-1.398-1.385-3.082-4.152c2.853-.457 5.48-.998 7.878-1.629v-12.97h-7.707v-.985h14.47l2.357-2.74zm8.734-14.256c2.625.543 4.38 1.1 5.266 1.67 1.028.656 1.542 1.555 1.542 2.697 0 1.227-.343 1.842-1.028 1.842-.572 0-1.099-.473-1.584-1.412-.657-1.428-2.07-2.813-4.239-4.156l.043-.641zm28.98 14.643c.344.285.6.484.771.598 1.568 1.199 2.355 2.027 2.355 2.484 0 .371-.543.627-1.627.77v11.732c1.711 2.48 5.236 3.766 10.574 3.852h8.99c3.311-.057 6.693-.285 10.146-.686l.172.771c-.914.455-1.498 1.328-1.756 2.611l-4.152.043-4.197.043h-9.459c-2.998 0-5.197-.428-6.594-1.283-1.484-.916-2.928-2.414-4.324-4.496l-5.695 4.281c-.057 1.285-.285 1.926-.684 1.926-.457 0-1.129-.957-2.014-2.867-.057-.086-.229-.43-.514-1.029l6.508-2.568V86.217h-6.25v-.984h6.123l1.627-1.926zm-5.18-15.928c2.912.543 4.881 1.131 5.908 1.756.914.572 1.369 1.326 1.369 2.27 0 1.713-.357 2.568-1.07 2.568-.484 0-1.055-.512-1.711-1.541-1.113-1.684-2.641-3.141-4.582-4.367l.086-.686zm28.557-.299c.17.113.355.242.557.385.227.145.398.258.514.344 1.541 1.057 2.311 1.797 2.311 2.227 0 .398-.941.67-2.824.814-1.285.883-3.27 1.969-5.951 3.252.256.314.385.686.385 1.113 0 .828-.186 1.684-.557 2.566h7.064l1.541-1.883c.314.199.541.344.686.428 1.684 1.029 2.525 1.756 2.525 2.186 0 .455-.529.77-1.584.941v18.922c0 .229-.199.529-.6.898-.941.916-1.857 1.371-2.74 1.371-.543 0-.855-.199-.941-.6l-.258-1.24c-.084-.4-.342-.656-.77-.771l-2.441-.514.043-.729 3.725.213c.602-.055.914-.227.943-.512v-4.967h-6.68v8.006c0 .543-.742.814-2.227.814-.543 0-.813-.145-.813-.428v-8.393h-6.336v8.305c0 .6-.744.9-2.227.9-.514 0-.771-.186-.771-.557V75.898l3.469 1.883h6.551c-.258-.313-.529-.813-.814-1.496-.543-1.541-2.027-3.139-4.453-4.795l.344-.771c3.225 1.027 5.266 1.9 6.121 2.611 1.543-1.055 2.754-2.268 3.639-3.639h-14.299v-.941h15.07l1.798-1.67zm-14.428 11.645v5.395h6.336v-5.395h-6.336zm0 6.338v5.479h6.336v-5.479h-6.336zm9.375-6.338v5.395h6.68v-5.395h-6.68zm0 6.338v5.479h6.68v-5.479h-6.68zm25.707 11.343c.256.201.527.402.813.598.342.23.57.387.686.473 1.227.857 1.84 1.428 1.84 1.713 0 .314-.199.471-.598.471-.201 0-.416-.014-.645-.045-.229 0-.357-.012-.385-.041-2.254 2.969-4.537 5.195-6.85 6.68l-.557-.6c2.427-2.94 4.325-6.022 5.696-9.249zm-3.683-28.982l3.34 1.797h5.352l1.285-1.67c.627.457 1.012.742 1.156.857 1.369.941 2.055 1.582 2.055 1.926 0 .457-.486.713-1.457.771v24.402c0 .713-.727 1.07-2.182 1.07-.457 0-.729-.158-.814-.473v-.854h-5.736v.855c0 .629-.758.943-2.27.943-.486 0-.729-.229-.729-.686V67.424zm2.998 2.781v7.021h5.736v-7.021h-5.736zm0 7.963v7.449h5.736v-7.449h-5.736zm0 8.436v7.662h5.736v-7.662h-5.736zm4.238 9.675c3.738 1.684 5.607 3.494 5.607 5.436 0 1.342-.385 2.012-1.154 2.012-.686 0-1.229-.627-1.629-1.883a12.012 12.012 0 0 0-.77-1.84c-.6-1.113-1.27-2.041-2.012-2.785l-.387-.383.345-.557zm27.059-29.927l3.424 2.826v.986h-17.809v9.93h11.771l1.67-2.139c.455.4.756.656.9.77 1.627 1.285 2.439 2.141 2.439 2.57 0 .314-.514.484-1.541.512h-.172c-1.283 5.824-3.281 10.504-5.994 14.043 2.74 2.826 5.637 4.994 8.691 6.508l-.172.898c-1.227.086-2.211.742-2.953 1.969-2.77-1.654-5.238-3.98-7.406-6.977-2.74 3.281-6.438 5.965-11.09 8.049l-.385-.686c4.48-2.684 7.85-5.908 10.104-9.676-2.369-4.395-3.924-9.348-4.666-14.855h-1.197v1.799c-.029 6.879-.844 12.201-2.441 15.969-1.172 2.738-2.842 5.221-5.01 7.449l-.6-.387c3.281-5.338 4.967-12.357 5.053-21.063V67.123l3.639 2.055h11.602l2.143-2.826zM306.027 81.08c1.113 5.279 2.768 9.447 4.967 12.5 2.168-3.396 3.709-7.563 4.623-12.5h-9.59zm51.414-7.322l-.127 6.68c.855-.057 2.068-.143 3.639-.258.342-.027.828-.127 1.455-.299.828-.229 1.369-.342 1.627-.342.484 0 1.141.229 1.971.686.998.572 1.498 1.111 1.498 1.625 0 .402-.344.6-1.029.6-.314 0-.955-.027-1.926-.086-1.57-.055-2.955-.086-4.152-.086-1.199 0-2.27.031-3.211.086-.145 5.766-.971 10.119-2.482 13.059-2.113 3.711-5.938 6.791-11.475 9.246l-.428-.641c4.252-2.512 7.178-5.123 8.777-7.836 1.711-3.139 2.609-7.705 2.695-13.699-3.053.143-6.75.387-11.088.727l-.172 5.098c0 .17.016.654.043 1.453v3.426c0 1.285-.385 1.928-1.156 1.928-.455 0-.883-.357-1.283-1.072-.344-.57-.514-1.084-.514-1.541l.6-3.168v-5.863c-2.113.113-3.697.357-4.752.727-.715.256-1.215.387-1.5.387-.742 0-1.684-.629-2.826-1.887-.77-.826-1.283-1.711-1.541-2.652l.857-.301c1.455 1.199 3.082 1.799 4.881 1.799 1.541 0 3.182-.043 4.924-.129l-.129-5.822c-.086-2.139-1-3.367-2.74-3.68l-.043-.73c.6-.398 1.113-.598 1.541-.598 1.084 0 2.383.369 3.896 1.113.484.256.727.527.727.813l-.727 2.697v5.992c2.482-.084 6.164-.285 11.045-.598v-6.723c-.086-1.684-1-2.639-2.738-2.869l-.045-.727c.828-.455 1.514-.686 2.057-.686.826 0 1.883.301 3.166.9.771.344 1.156.67 1.156.984 0 .256-.084.756-.256 1.498a58.7 58.7 0 0 1-.215.769zm38.022-5.694c.969.086 1.598.172 1.885.258 1.055.314 2.141 1.227 3.252 2.74.314.398.473.711.473.941 0 .287-.301.57-.9.855-.428.23-.742.457-.941.684-.115.115-.301.33-.557.645a58.079 58.079 0 0 1-6.678 7.363c.541.314.813.627.813.941l-.729 1.326v11.561c.029 2.141.072 3.553.129 4.236.113 1.715.172 2.998.172 3.855 0 1.254-.428 1.883-1.285 1.883-.455 0-.914-.314-1.369-.941-.486-.686-.729-1.355-.729-2.012 0-.285.043-.871.129-1.756.113-1.055.172-1.826.172-2.311V85.875a1.498 1.498 0 0 1-.043-.428c-.029-.629-.102-1.07-.215-1.328-5.195 4.139-10.275 6.85-15.242 8.135l-.342-.729c5.252-2.367 10.117-5.607 14.6-9.719 5.65-5.137 8.477-8.875 8.477-11.215 0-.744-.385-1.355-1.154-1.842l.082-.685zm28.584 4.497c-.084.371-.156 2.939-.215 7.707v1.027l-.043 1.113c8.449 2.082 12.674 4.607 12.674 7.576 0 1-.357 1.498-1.07 1.498-.6 0-1.385-.557-2.355-1.67-1.398-1.627-3.24-3.139-5.523-4.537-1.625-.943-2.867-1.514-3.725-1.713v4.453c0 2.455.029 5.094.088 7.92.057 2.854.086 4.693.086 5.523 0 2.711-.428 4.066-1.287 4.066-.625 0-1.184-.543-1.668-1.627-.285-.715-.428-1.369-.428-1.969 0-.17.027-.471.086-.9.084-.426.143-.813.172-1.154.025-1.826.055-3.039.084-3.639.059-1.514.086-2.512.086-3V74.188c-.027-1.713-.301-2.826-.813-3.338-.516-.43-1.371-.672-2.568-.73l-.428-.727c1.084-.543 1.91-.814 2.48-.814.857 0 1.912.287 3.17.857 1.197.57 1.797 1.084 1.797 1.541 0 .145-.084.385-.256.729a5.216 5.216 0 0 0-.344.855z" fill="#5E4545" stroke="#5E4545" stroke-miterlimit="10"/></svg>